<svg width="256" height="261" viewBox="0 0 256 261" fill="none" xmlns="http://www.w3.org/2000/svg">
<circle cx="128" cy="128" r="128" fill="url(#paint0_linear_8_2)"/>
<g filter="url(#filter0_d_8_2)">
<path d="M227.299 146.701L157.124 220.846L57.8248 197.145L28.701 99.299L98.8761 25.154L198.175 48.855L227.299 146.701Z" fill="#FAB387"/>
<path d="M62.1695 107.193L70.3366 137.819L104.026 144.965L96.8796 115.36L62.1695 107.193Z" fill="#F9E2AF"/>
<path d="M131.59 32.6683L62.1695 107.193L96.8796 115.36L161.195 39.8145L131.59 32.6683Z" fill="url(#paint1_linear_8_2)"/>
<path d="M48 82L64 86L50 102L33 98L48 82Z" fill="#EFF1F5"/>
<line x1="41.7849" y1="97.8207" x2="46.7849" y2="91.8207" stroke="black" stroke-width="0.56"/>
<path d="M57.7997 88.2008C57.8706 88.1229 57.9434 88.0701 58.018 88.0425C58.0931 88.0144 58.165 88.0076 58.2337 88.0223C58.3023 88.036 58.3628 88.0667 58.415 88.1142C58.4565 88.1519 58.4907 88.196 58.5176 88.2466C58.5445 88.2963 58.5656 88.3574 58.5808 88.4298C58.5956 88.5018 58.6056 88.5889 58.611 88.691C58.6167 88.7927 58.619 88.9141 58.6177 89.0553L59.0159 88.6172L59.1714 88.8045L58.5518 89.486L58.3861 89.3353C58.3824 89.2085 58.3781 89.0973 58.373 89.0018C58.368 88.9062 58.3615 88.8237 58.3535 88.7542C58.3459 88.6843 58.3362 88.625 58.3245 88.5765C58.3132 88.5275 58.299 88.4866 58.2818 88.454C58.2642 88.4208 58.2433 88.3933 58.2191 88.3713C58.1777 88.3336 58.1339 88.3159 58.0878 88.3181C58.0421 88.3198 57.9993 88.3426 57.9594 88.3865C57.9239 88.4254 57.9013 88.4666 57.8916 88.51C57.8819 88.5534 57.8832 88.6051 57.8954 88.6649L57.6569 88.7102C57.6386 88.6233 57.6393 88.5374 57.6588 88.4525C57.6779 88.3671 57.7248 88.2832 57.7997 88.2008ZM58.6065 87.3135C58.6773 87.2356 58.7501 87.1828 58.8247 87.1552C58.8999 87.127 58.9717 87.1203 59.0404 87.135C59.109 87.1487 59.1695 87.1793 59.2218 87.2269C59.2632 87.2645 59.2974 87.3087 59.3243 87.3593C59.3512 87.409 59.3723 87.4701 59.3876 87.5425C59.4023 87.6145 59.4123 87.7015 59.4177 87.8037C59.4235 87.9054 59.4257 88.0268 59.4244 88.1679L59.8226 87.7299L59.9781 87.9172L59.3585 88.5987L59.1928 88.448C59.1891 88.3212 59.1848 88.21 59.1797 88.1145C59.1747 88.0189 59.1682 87.9364 59.1602 87.8669C59.1526 87.797 59.1429 87.7377 59.1312 87.6892C59.1199 87.6402 59.1057 87.5993 59.0886 87.5666C59.0709 87.5335 59.05 87.5059 59.0259 87.484C58.9844 87.4463 58.9406 87.4286 58.8945 87.4307C58.8488 87.4324 58.806 87.4553 58.7661 87.4992C58.7306 87.5381 58.7081 87.5793 58.6983 87.6227C58.6886 87.6661 58.6899 87.7177 58.7022 87.7776L58.4636 87.8229C58.4453 87.736 58.446 87.6501 58.4655 87.5651C58.4846 87.4797 58.5316 87.3959 58.6065 87.3135Z" fill="black"/>
<path d="M40.5873 95.9398C40.6456 95.8757 40.688 95.8043 40.7145 95.7256C40.7408 95.6451 40.7598 95.5587 40.7715 95.4666L41.2572 95.5271C41.2536 95.6499 41.2262 95.7791 41.1751 95.9146C41.1249 96.0492 41.0441 96.1776 40.9329 96.2999C40.7795 96.4686 40.6132 96.5823 40.4338 96.6408C40.2534 96.6985 40.072 96.7038 39.8895 96.6568C39.706 96.6089 39.5323 96.5105 39.3685 96.3616C39.2048 96.2127 39.0893 96.0474 39.0221 95.8656C38.9549 95.6819 38.9404 95.4957 38.9786 95.307C39.0177 95.1173 39.1139 94.9381 39.2673 94.7694C39.3758 94.65 39.489 94.5592 39.6069 94.497C39.7246 94.4329 39.8515 94.3914 39.9875 94.3727L40.0843 94.8311C39.9984 94.8503 39.9182 94.88 39.8436 94.9204C39.7691 94.9607 39.7027 95.013 39.6444 95.0771C39.5484 95.1827 39.5083 95.3021 39.5241 95.4354C39.5398 95.5668 39.6359 95.7127 39.8125 95.8733C39.928 95.9782 40.0331 96.0459 40.128 96.0763C40.2219 96.1058 40.3069 96.1074 40.3831 96.0812C40.4591 96.053 40.5272 96.0059 40.5873 95.9398ZM40.757 93.1309C40.9041 92.9691 41.0637 92.8629 41.2359 92.8122C41.4081 92.7616 41.5842 92.7631 41.7642 92.8168C41.9432 92.8696 42.1166 92.9723 42.2843 93.1248C42.4589 93.2835 42.5816 93.4509 42.6523 93.6269C42.7228 93.801 42.7401 93.9752 42.704 94.1497C42.668 94.3241 42.5768 94.4918 42.4306 94.6526C42.2853 94.8124 42.1276 94.9195 41.9575 94.9738C41.7882 95.0272 41.6132 95.0275 41.4323 94.9747C41.2522 94.921 41.0744 94.8143 40.8988 94.6547C40.7321 94.5031 40.6135 94.3402 40.5429 94.1662C40.4732 93.9911 40.4549 93.815 40.488 93.6378C40.522 93.4597 40.6117 93.2907 40.757 93.1309ZM41.1018 93.4444C41.0148 93.5401 40.9896 93.647 41.0264 93.7651C41.0631 93.8814 41.1668 94.0171 41.3374 94.1722C41.5111 94.3301 41.6575 94.4218 41.7767 94.4472C41.8968 94.4717 42.0003 94.4361 42.0873 94.3404C42.1743 94.2447 42.1995 94.1388 42.1628 94.0225C42.127 93.9053 42.0213 93.7669 41.8457 93.6072C41.676 93.4529 41.5311 93.3636 41.4111 93.3391C41.2919 93.3136 41.1888 93.3487 41.1018 93.4444ZM43.6639 92.6242C43.7347 92.5462 43.7794 92.4724 43.7978 92.4026C43.817 92.3318 43.802 92.274 43.7527 92.2292C43.7192 92.1987 43.6825 92.1825 43.6428 92.1806C43.6031 92.1787 43.5486 92.195 43.4795 92.2294C43.4103 92.2639 43.3139 92.3204 43.1902 92.3989C43.0775 92.4713 42.9679 92.5266 42.8611 92.5647C42.7553 92.6018 42.6525 92.6128 42.5526 92.5978C42.4537 92.5817 42.3579 92.5315 42.2651 92.4472C42.1714 92.362 42.1118 92.2601 42.0864 92.1414C42.0609 92.0227 42.0736 91.8938 42.1246 91.7545C42.1745 91.6143 42.2663 91.4707 42.4 91.3237C42.5273 91.1836 42.6564 91.0784 42.7871 91.008C42.9176 90.9357 43.0451 90.8867 43.1694 90.8609L43.2751 91.2977C43.1755 91.326 43.0797 91.3669 42.9879 91.4203C42.8951 91.4729 42.8141 91.5372 42.7451 91.6131C42.676 91.6891 42.6348 91.7552 42.6214 91.8116C42.608 91.866 42.6215 91.9116 42.6619 91.9484C42.6885 91.9726 42.7202 91.9843 42.757 91.9835C42.7937 91.9808 42.8466 91.9622 42.9158 91.9278C42.9839 91.8925 43.0795 91.8369 43.2023 91.7613C43.3233 91.6857 43.4367 91.6274 43.5423 91.5865C43.6489 91.5446 43.7525 91.5317 43.8534 91.5476C43.9532 91.5627 44.0544 91.6169 44.157 91.7102C44.2714 91.8142 44.3367 91.9357 44.3527 92.0746C44.3678 92.2127 44.3434 92.3554 44.2797 92.5029C44.2159 92.6503 44.123 92.7911 44.001 92.9253C43.8629 93.0772 43.7192 93.1916 43.57 93.2686C43.4207 93.3455 43.2734 93.3927 43.1279 93.41L43.0784 92.9352C43.1813 92.9171 43.2836 92.8839 43.3851 92.8357C43.4876 92.7864 43.5805 92.7159 43.6639 92.6242ZM44.4211 89.1007C44.4892 89.0257 44.5611 88.9784 44.6366 88.9588C44.7121 88.9391 44.7947 88.9484 44.8843 88.9866C44.9729 89.0239 45.0715 89.0919 45.18 89.1906L46.3431 90.2481L45.9785 90.6491L44.8686 89.6401C44.8134 89.5898 44.7695 89.5598 44.7369 89.55C44.7053 89.5393 44.6751 89.5497 44.6464 89.5813C44.624 89.6059 44.6081 89.6383 44.5986 89.6784C44.5891 89.7166 44.5898 89.7694 44.6005 89.8369L45.7592 90.8903L45.4605 91.2188L44.3507 90.2098C44.2954 90.1596 44.2515 90.1296 44.219 90.1198C44.1873 90.109 44.1571 90.1194 44.1284 90.151C44.106 90.1757 44.0901 90.208 44.0807 90.2481C44.0711 90.2863 44.0718 90.3392 44.0825 90.4066L45.2412 91.4601L44.8713 91.867L43.2997 90.4382L43.6118 90.0949L43.7925 90.2024C43.7702 90.0921 43.7647 89.996 43.7759 89.9143C43.7872 89.8326 43.8242 89.7572 43.8869 89.6882C43.9408 89.629 44.0018 89.5926 44.0701 89.5789C44.1382 89.5634 44.2124 89.5759 44.2927 89.6165C44.2805 89.5189 44.2832 89.4258 44.3007 89.3372C44.3181 89.2486 44.3583 89.1697 44.4211 89.1007ZM45.9033 87.5744L47.1553 88.7126L47.5185 88.3131L47.8382 88.6037L46.6448 89.9163L46.3251 89.6257L46.7301 89.1802L45.7978 88.3326L45.4063 88.7633L45.0867 88.4727L45.9033 87.5744ZM44.8236 87.109C44.8971 87.0281 44.9824 86.9849 45.0793 86.9793C45.1763 86.9738 45.2622 87.0051 45.3372 87.0732C45.4122 87.1414 45.452 87.2245 45.4567 87.3224C45.4603 87.4194 45.4254 87.5084 45.3519 87.5893C45.2774 87.6712 45.1913 87.7154 45.0934 87.722C44.9955 87.7266 44.909 87.6949 44.834 87.6267C44.7591 87.5585 44.7197 87.4759 44.7161 87.3789C44.7133 87.2808 44.7491 87.1909 44.8236 87.109ZM48.2286 88.1742L47.9149 87.889L48.1032 87.6818L47.1562 86.8207L46.9678 87.0279L46.657 86.7454L47.1696 86.1816L47.6013 86.4173C47.5173 86.2382 47.4817 86.0751 47.4945 85.9282C47.5083 85.7803 47.5725 85.6432 47.6873 85.517C47.7358 85.4637 47.7833 85.4204 47.8298 85.387C47.8754 85.3528 47.9222 85.3241 47.9701 85.3011L48.2272 85.7943C48.1933 85.8157 48.1614 85.8389 48.1314 85.864C48.1015 85.889 48.0708 85.9187 48.0394 85.9533C47.9461 86.0559 47.906 86.1843 47.919 86.3384C47.9329 86.4916 47.9861 86.6472 48.0785 86.8052L48.5284 87.2142L48.8109 86.9034L49.1247 87.1886L48.2286 88.1742ZM48.2814 86.2787L47.8227 85.8617L47.6876 85.6118L47.9701 85.3011L48.5478 85.9857L48.2814 86.2787ZM50.5786 84.6797C50.6377 84.7335 50.6878 84.7646 50.7288 84.7731C50.7707 84.7805 50.8151 84.7722 50.8621 84.7483L51.0825 85.1243C50.9893 85.209 50.8978 85.269 50.8079 85.3045C50.7179 85.338 50.6238 85.3434 50.5255 85.3207C50.5428 85.4464 50.5266 85.5722 50.4769 85.6982C50.4263 85.8234 50.3565 85.9347 50.2677 86.0324C50.1206 86.1942 49.9573 86.2817 49.7776 86.295C49.5979 86.3064 49.4355 86.2462 49.2905 86.1143C49.1198 85.9591 49.0486 85.7728 49.077 85.5553C49.1062 85.3368 49.2312 85.1062 49.4518 84.8635L49.6442 84.6519L49.585 84.5981C49.5031 84.5237 49.4182 84.4951 49.3303 84.5125C49.2433 84.529 49.1537 84.588 49.0613 84.6896C49.0155 84.7399 48.9642 84.8112 48.9072 84.9036C48.8493 84.9951 48.7977 85.0924 48.7526 85.1956L48.3437 85.021C48.3976 84.8844 48.4644 84.7524 48.5443 84.625C48.625 84.4966 48.7048 84.3889 48.7837 84.3021C48.9963 84.0683 49.2011 83.9392 49.3982 83.9147C49.5951 83.8883 49.7834 83.9568 49.9629 84.12L50.5786 84.6797ZM50.0799 85.5671C50.1257 85.5167 50.1589 85.4505 50.1795 85.3683C50.1991 85.2853 50.1943 85.2043 50.1651 85.1255L49.9106 84.8941L49.8056 85.0095C49.6872 85.1398 49.6205 85.2538 49.6053 85.3518C49.5892 85.4488 49.6196 85.5323 49.6965 85.6023C49.7567 85.657 49.8206 85.6818 49.8884 85.6767C49.956 85.6697 50.0198 85.6331 50.0799 85.5671Z" fill="black"/>
</g>
<defs>
<filter id="filter0_d_8_2" x="0.700979" y="9.15403" width="254.598" height="251.692" filterUnits="userSpaceOnUse" color-interpolation-filters="sRGB">
<feFlood flood-opacity="0" result="BackgroundImageFix"/>
<feColorMatrix in="SourceAlpha" type="matrix" values="0 0 0 0 0 0 0 0 0 0 0 0 0 0 0 0 0 0 127 0" result="hardAlpha"/>
<feOffset dy="12"/>
<feGaussianBlur stdDeviation="14"/>
<feComposite in2="hardAlpha" operator="out"/>
<feColorMatrix type="matrix" values="0 0 0 0 0 0 0 0 0 0 0 0 0 0 0 0 0 0 0.25 0"/>
<feBlend mode="normal" in2="BackgroundImageFix" result="effect1_dropShadow_8_2"/>
<feBlend mode="normal" in="SourceGraphic" in2="effect1_dropShadow_8_2" result="shape"/>
</filter>
<linearGradient id="paint0_linear_8_2" x1="245.5" y1="105" x2="112" y2="246.5" gradientUnits="userSpaceOnUse">
<stop stop-color="#CBA6F7"/>
<stop offset="1" stop-color="#A6E3A1"/>
</linearGradient>
<linearGradient id="paint1_linear_8_2" x1="111.682" y1="32.6683" x2="111.682" y2="144.965" gradientUnits="userSpaceOnUse">
<stop stop-color="#F2CDCD" stop-opacity="0.65"/>
<stop offset="1" stop-color="#F9E2AF"/>
</linearGradient>
</defs>
</svg>
