<svg width="800" height="800" viewBox="0 0 800 800" fill="none" xmlns="http://www.w3.org/2000/svg">
<g filter="url(#filter0_d_8_26)">
<path d="M722.924 477.076L494.712 718.198L171.788 641.122L77.0763 322.924L305.288 81.8017L628.212 158.878L722.924 477.076Z" fill="#FAB387"/>
<path d="M185.917 348.594L212.477 448.193L322.035 471.432L298.795 375.154L185.917 348.594Z" fill="#F9E2AF"/>
<path d="M411.674 106.238L185.917 348.594L298.795 375.154L507.952 129.478L411.674 106.238Z" fill="url(#paint0_linear_8_26)"/>
<path d="M139.837 266.667L191.87 279.675L146.341 331.707L91.0569 318.699L139.837 266.667Z" fill="#EFF1F5"/>
<line x1="120.11" y1="318.52" x2="136.37" y2="299.008" stroke="black" stroke-width="0.56"/>
<path d="M169.905 286.875C169.976 286.797 170.049 286.744 170.124 286.716C170.199 286.688 170.271 286.681 170.339 286.696C170.408 286.71 170.468 286.74 170.521 286.788C170.562 286.826 170.596 286.87 170.623 286.92C170.65 286.97 170.671 287.031 170.687 287.104C170.701 287.176 170.711 287.263 170.717 287.365C170.722 287.466 170.725 287.588 170.723 287.729L171.122 287.291L171.277 287.478L170.658 288.16L170.492 288.009C170.488 287.882 170.484 287.771 170.479 287.676C170.474 287.58 170.467 287.497 170.459 287.428C170.452 287.358 170.442 287.299 170.43 287.25C170.419 287.201 170.405 287.16 170.388 287.128C170.37 287.095 170.349 287.067 170.325 287.045C170.283 287.007 170.24 286.99 170.193 286.992C170.148 286.994 170.105 287.016 170.065 287.06C170.03 287.099 170.007 287.14 169.997 287.184C169.988 287.227 169.989 287.279 170.001 287.339L169.763 287.384C169.744 287.297 169.745 287.211 169.765 287.126C169.784 287.041 169.831 286.957 169.905 286.875ZM170.712 285.987C170.783 285.909 170.856 285.857 170.93 285.829C171.006 285.801 171.077 285.794 171.146 285.809C171.215 285.822 171.275 285.853 171.327 285.901C171.369 285.938 171.403 285.982 171.43 286.033C171.457 286.083 171.478 286.144 171.493 286.216C171.508 286.288 171.518 286.375 171.523 286.477C171.529 286.579 171.531 286.701 171.53 286.842L171.928 286.404L172.084 286.591L171.464 287.272L171.298 287.122C171.295 286.995 171.29 286.884 171.285 286.788C171.28 286.693 171.274 286.61 171.266 286.541C171.258 286.471 171.249 286.411 171.237 286.363C171.226 286.314 171.211 286.273 171.194 286.24C171.177 286.207 171.156 286.18 171.132 286.158C171.09 286.12 171.046 286.102 171 286.104C170.955 286.106 170.912 286.129 170.872 286.173C170.836 286.212 170.814 286.253 170.804 286.296C170.794 286.34 170.796 286.391 170.808 286.451L170.569 286.497C170.551 286.41 170.552 286.324 170.571 286.239C170.59 286.153 170.637 286.07 170.712 285.987Z" fill="black"/>
<path d="M107.652 308.934C107.711 308.87 107.753 308.798 107.78 308.72C107.806 308.639 107.825 308.553 107.837 308.461L108.322 308.521C108.319 308.644 108.291 308.773 108.24 308.909C108.19 309.043 108.109 309.172 107.998 309.294C107.845 309.463 107.678 309.576 107.499 309.635C107.318 309.693 107.137 309.698 106.955 309.651C106.771 309.603 106.597 309.505 106.434 309.356C106.27 309.207 106.154 309.041 106.087 308.86C106.02 308.676 106.005 308.49 106.044 308.301C106.083 308.111 106.179 307.932 106.332 307.763C106.441 307.644 106.554 307.553 106.672 307.491C106.79 307.427 106.917 307.385 107.053 307.367L107.149 307.825C107.063 307.844 106.983 307.874 106.909 307.914C106.834 307.955 106.768 308.007 106.709 308.071C106.613 308.177 106.573 308.296 106.589 308.429C106.605 308.561 106.701 308.707 106.878 308.867C106.993 308.972 107.098 309.04 107.193 309.07C107.287 309.1 107.372 309.101 107.448 309.075C107.524 309.047 107.592 309 107.652 308.934ZM107.822 306.125C107.969 305.963 108.129 305.857 108.301 305.806C108.473 305.756 108.649 305.757 108.829 305.811C109.008 305.864 109.182 305.966 109.349 306.119C109.524 306.278 109.647 306.445 109.717 306.621C109.788 306.795 109.805 306.969 109.769 307.144C109.733 307.318 109.642 307.486 109.496 307.647C109.35 307.806 109.193 307.913 109.023 307.968C108.853 308.021 108.678 308.021 108.497 307.969C108.317 307.915 108.14 307.808 107.964 307.649C107.797 307.497 107.679 307.334 107.608 307.16C107.538 306.985 107.52 306.809 107.553 306.632C107.587 306.454 107.677 306.285 107.822 306.125ZM108.167 306.438C108.08 306.534 108.055 306.641 108.091 306.759C108.128 306.875 108.232 307.011 108.402 307.166C108.576 307.324 108.723 307.416 108.842 307.441C108.962 307.466 109.065 307.43 109.152 307.334C109.239 307.239 109.265 307.133 109.228 307.017C109.192 306.899 109.086 306.761 108.911 306.601C108.741 306.447 108.596 306.358 108.476 306.333C108.357 306.308 108.254 306.343 108.167 306.438ZM110.729 305.618C110.8 305.54 110.844 305.466 110.863 305.397C110.882 305.326 110.867 305.268 110.818 305.223C110.784 305.193 110.748 305.177 110.708 305.175C110.668 305.173 110.614 305.189 110.545 305.223C110.475 305.258 110.379 305.314 110.255 305.393C110.143 305.465 110.033 305.521 109.926 305.559C109.82 305.596 109.718 305.607 109.618 305.592C109.519 305.576 109.423 305.526 109.33 305.441C109.236 305.356 109.177 305.254 109.151 305.135C109.126 305.017 109.139 304.888 109.19 304.749C109.24 304.608 109.331 304.465 109.465 304.318C109.592 304.178 109.721 304.072 109.852 304.002C109.983 303.93 110.11 303.881 110.234 303.855L110.34 304.292C110.241 304.32 110.145 304.361 110.053 304.414C109.96 304.467 109.879 304.531 109.81 304.607C109.741 304.683 109.7 304.749 109.686 304.806C109.673 304.86 109.687 304.906 109.727 304.942C109.754 304.967 109.785 304.978 109.822 304.978C109.859 304.975 109.912 304.956 109.981 304.922C110.049 304.886 110.145 304.831 110.267 304.755C110.388 304.68 110.502 304.621 110.607 304.581C110.714 304.539 110.818 304.526 110.918 304.542C111.018 304.557 111.119 304.611 111.222 304.704C111.336 304.808 111.402 304.93 111.418 305.069C111.433 305.207 111.408 305.349 111.345 305.497C111.281 305.644 111.188 305.785 111.066 305.919C110.928 306.071 110.784 306.186 110.635 306.263C110.486 306.34 110.338 306.387 110.193 306.404L110.143 305.929C110.246 305.911 110.349 305.878 110.45 305.83C110.553 305.78 110.646 305.71 110.729 305.618ZM111.486 302.095C111.554 302.02 111.626 301.972 111.702 301.953C111.777 301.933 111.86 301.942 111.949 301.981C112.038 302.018 112.137 302.086 112.245 302.185L113.408 303.242L113.044 303.643L111.934 302.634C111.878 302.584 111.835 302.554 111.802 302.544C111.77 302.533 111.74 302.544 111.711 302.575C111.689 302.6 111.673 302.632 111.664 302.672C111.654 302.711 111.655 302.763 111.666 302.831L112.824 303.884L112.526 304.213L111.416 303.204C111.36 303.154 111.317 303.124 111.284 303.114C111.252 303.103 111.222 303.113 111.193 303.145C111.171 303.17 111.155 303.202 111.146 303.242C111.136 303.28 111.137 303.333 111.148 303.401L112.306 304.454L111.936 304.861L110.365 303.432L110.677 303.089L110.858 303.196C110.835 303.086 110.83 302.99 110.841 302.908C110.852 302.827 110.889 302.751 110.952 302.682C111.006 302.623 111.067 302.587 111.135 302.573C111.203 302.557 111.277 302.57 111.358 302.611C111.346 302.513 111.348 302.42 111.366 302.331C111.383 302.243 111.423 302.164 111.486 302.095ZM112.968 300.568L114.22 301.707L114.584 301.307L114.903 301.598L113.71 302.91L113.39 302.62L113.795 302.174L112.863 301.327L112.471 301.757L112.152 301.467L112.968 300.568ZM111.889 300.103C111.962 300.022 112.047 299.979 112.144 299.973C112.241 299.968 112.327 299.999 112.402 300.067C112.477 300.135 112.517 300.218 112.522 300.316C112.525 300.413 112.49 300.502 112.417 300.583C112.342 300.665 112.256 300.709 112.158 300.716C112.061 300.721 111.974 300.689 111.899 300.621C111.824 300.553 111.785 300.47 111.781 300.373C111.778 300.275 111.814 300.185 111.889 300.103ZM115.294 301.168L114.98 300.883L115.168 300.676L114.221 299.815L114.033 300.022L113.722 299.739L114.235 299.176L114.666 299.411C114.582 299.232 114.547 299.069 114.56 298.922C114.573 298.774 114.638 298.637 114.752 298.511C114.801 298.458 114.848 298.414 114.895 298.381C114.94 298.347 114.987 298.318 115.035 298.295L115.292 298.788C115.258 298.81 115.226 298.833 115.196 298.858C115.167 298.883 115.136 298.913 115.104 298.947C115.011 299.05 114.971 299.178 114.984 299.332C114.998 299.486 115.051 299.641 115.144 299.799L115.593 300.208L115.876 299.897L116.19 300.183L115.294 301.168ZM115.346 299.273L114.888 298.856L114.753 298.606L115.035 298.295L115.613 298.98L115.346 299.273ZM117.644 297.674C117.703 297.728 117.753 297.759 117.794 297.767C117.836 297.775 117.88 297.766 117.927 297.742L118.148 298.118C118.054 298.203 117.963 298.263 117.873 298.298C117.783 298.332 117.689 298.337 117.591 298.315C117.608 298.44 117.592 298.566 117.542 298.692C117.491 298.817 117.422 298.929 117.333 299.026C117.186 299.188 117.022 299.276 116.843 299.289C116.663 299.3 116.501 299.24 116.356 299.108C116.185 298.953 116.114 298.767 116.142 298.549C116.171 298.331 116.296 298.1 116.517 297.858L116.709 297.646L116.65 297.592C116.568 297.518 116.483 297.489 116.395 297.507C116.308 297.523 116.219 297.582 116.126 297.684C116.081 297.734 116.029 297.805 115.972 297.898C115.914 297.989 115.863 298.086 115.818 298.19L115.409 298.015C115.463 297.878 115.529 297.746 115.609 297.619C115.69 297.491 115.77 297.383 115.849 297.296C116.061 297.062 116.266 296.933 116.463 296.909C116.66 296.882 116.848 296.951 117.028 297.114L117.644 297.674ZM117.145 298.561C117.191 298.511 117.224 298.445 117.245 298.362C117.264 298.279 117.259 298.198 117.23 298.12L116.976 297.888L116.871 298.004C116.752 298.134 116.686 298.248 116.67 298.346C116.654 298.443 116.685 298.526 116.762 298.596C116.822 298.651 116.886 298.676 116.953 298.671C117.021 298.664 117.085 298.627 117.145 298.561Z" fill="black"/>
</g>
<defs>
<filter id="filter0_d_8_26" x="49.0764" y="65.8018" width="701.847" height="692.396" filterUnits="userSpaceOnUse" color-interpolation-filters="sRGB">
<feFlood flood-opacity="0" result="BackgroundImageFix"/>
<feColorMatrix in="SourceAlpha" type="matrix" values="0 0 0 0 0 0 0 0 0 0 0 0 0 0 0 0 0 0 127 0" result="hardAlpha"/>
<feOffset dy="12"/>
<feGaussianBlur stdDeviation="14"/>
<feComposite in2="hardAlpha" operator="out"/>
<feColorMatrix type="matrix" values="0 0 0 0 0 0 0 0 0 0 0 0 0 0 0 0 0 0 0.25 0"/>
<feBlend mode="normal" in2="BackgroundImageFix" result="effect1_dropShadow_8_26"/>
<feBlend mode="normal" in="SourceGraphic" in2="effect1_dropShadow_8_26" result="shape"/>
</filter>
<linearGradient id="paint0_linear_8_26" x1="346.935" y1="106.238" x2="346.935" y2="471.432" gradientUnits="userSpaceOnUse">
<stop stop-color="#F2CDCD" stop-opacity="0.65"/>
<stop offset="1" stop-color="#F9E2AF"/>
</linearGradient>
</defs>
</svg>
